<svg xmlns="http://www.w3.org/2000/svg" width="102.45" height="63.685" viewBox="0 0 102.45 63.685"><g transform="translate(-43 -66)"><circle cx="16.613" cy="16.613" r="16.613" transform="translate(112.223 66)" fill="#705df5" opacity="0.289"/><g transform="translate(89.666 66.298)"><path d="M592.873,212.749v14.925" transform="translate(-578.57 -207.512)" fill="none" stroke="#705df5" stroke-width="1"/><path d="M592.873,206.256v17.82" transform="translate(-585.721 -203.183)" fill="none" stroke="#705df5" stroke-width="1"/><path d="M592.873,206.256v2.125" transform="translate(-585.721 -206.256)" fill="none" stroke="#705df5" stroke-width="1"/><path d="M592.873,212.749v14.925" transform="translate(-592.873 -207.512)" fill="none" stroke="#705df5" stroke-width="1"/></g><g transform="translate(59.613 77.81)"><g transform="translate(12.46 0)" fill="#fff" stroke="#878787" stroke-width="1"><rect width="48.456" height="15.229" stroke="none"/><rect x="0.5" y="0.5" width="47.456" height="14.229" fill="none"/></g><g transform="translate(0 13.11)" fill="#fff"><path d="M 69.22276306152344 38.26474380493164 L 4.15337085723877 38.26474380493164 C 2.138890743255615 38.26474380493164 0.5000007748603821 36.62585067749023 0.5000007748603821 34.61138153076172 L 0.5000007748603821 4.153361797332764 C 0.5000007748603821 2.138891935348511 2.138890743255615 0.5000019073486328 4.15337085723877 0.5000019073486328 L 69.22276306152344 0.5000019073486328 C 71.23722839355469 0.5000019073486328 72.87612152099609 2.138891935348511 72.87612152099609 4.153361797332764 L 72.87612152099609 34.61138153076172 C 72.87612152099609 36.62585067749023 71.23722839355469 38.26474380493164 69.22276306152344 38.26474380493164 Z" stroke="none"/><path d="M 4.153358459472656 1 C 2.414588928222656 1 1 2.414592742919922 1 4.153362274169922 L 1 34.61138153076172 C 1 36.35015106201172 2.414588928222656 37.76473999023438 4.153358459472656 37.76473999023438 L 69.22276306152344 37.76473999023438 C 70.96153259277344 37.76473999023438 72.37612152099609 36.35015106201172 72.37612152099609 34.61138153076172 L 72.37612152099609 4.153362274169922 C 72.37612152099609 2.414592742919922 70.96153259277344 1 69.22276306152344 1 L 4.153358459472656 1 M 4.153358459472656 0 L 69.22276306152344 0 C 71.51659393310547 0 73.37612152099609 1.859523773193359 73.37612152099609 4.153362274169922 L 73.37612152099609 34.61138153076172 C 73.37612152099609 36.90522003173828 71.51659393310547 38.76474380493164 69.22276306152344 38.76474380493164 L 4.153358459472656 38.76474380493164 C 1.859527587890625 38.76474380493164 0 36.90522003173828 0 34.61138153076172 L 0 4.153362274169922 C 0 1.859523773193359 1.859527587890625 0 4.153358459472656 0 Z" stroke="none" fill="#707070"/></g><path d="M0,23.028h72.96" transform="translate(0 1.166)" fill="none" stroke="#705df5" stroke-width="1"/></g><circle cx="16.613" cy="16.613" r="16.613" transform="translate(43 86.767)" fill="#705df5" opacity="0.516"/></g></svg>