<svg xmlns="http://www.w3.org/2000/svg" width="79.759" height="53.724" viewBox="0 0 79.759 53.724"><g transform="translate(0 0)"><g fill="#f8f8f8" stroke="#707070" stroke-width="1"><rect width="72.887" height="53.724" rx="12" stroke="none"/><rect x="0.5" y="0.5" width="71.887" height="52.724" rx="11.5" fill="none"/></g><g transform="translate(6.872)" fill="#fff" stroke="#707070" stroke-width="1"><rect width="72.887" height="53.724" rx="12" stroke="none"/><rect x="0.5" y="0.5" width="71.887" height="52.724" rx="11.5" fill="none"/></g><rect width="14.368" height="8.746" rx="4.373" transform="translate(12.261 4.373)" fill="#705df5"/><g transform="translate(31.032 6.247)" fill="#fff" stroke="#707070" stroke-width="1"><circle cx="20.303" cy="20.303" r="20.303" stroke="none"/><circle cx="20.303" cy="20.303" r="19.803" fill="none"/></g><g transform="translate(38.529 8.746)" fill="#fff" stroke="#707070" stroke-width="1"><circle cx="18.116" cy="18.116" r="18.116" stroke="none"/><circle cx="18.116" cy="18.116" r="17.616" fill="none"/></g><path d="M18.116,0A18.116,18.116,0,1,1,0,18.116,18.116,18.116,0,0,1,18.116,0Z" transform="translate(43.526 8.746)" fill="#705df5"/><circle cx="15.617" cy="15.617" r="15.617" transform="translate(46.025 11.245)" fill="#fff"/></g></svg>