<svg xmlns="http://www.w3.org/2000/svg" width="70.505" height="49.452" viewBox="0 0 70.505 49.452"><g transform="translate(0)"><g transform="translate(2 3)" fill="#f8f8f8" stroke="#fff" stroke-width="2"><circle cx="20" cy="20" r="20" stroke="none"/><circle cx="20" cy="20" r="19" fill="none"/></g><path d="M577.784,256.016h41.032" transform="translate(-566.295 -210)" fill="none" stroke="#707070" stroke-width="1" opacity="0.366"/><g transform="translate(22)" fill="#f8f8f8" stroke="#fff" stroke-width="2"><circle cx="21.5" cy="21.5" r="21.5" stroke="none"/><circle cx="21.5" cy="21.5" r="20.5" fill="none"/></g><circle cx="15.5" cy="15.5" r="15.5" transform="translate(16 15)" fill="#6c5aee"/><g transform="translate(0 25)" fill="#fff"><path d="M 34.31863021850586 21.51592445373535 C 27.22196006774902 21.51592445373535 19.95217132568359 19.65386390686035 14.37332057952881 16.40720367431641 C 11.79110050201416 14.90445327758789 9.454630851745605 13.10129356384277 7.428830623626709 11.04780387878418 C 5.80755090713501 9.404343605041504 4.380030632019043 7.597353458404541 3.185930728912354 5.677013874053955 C 1.750196933746338 3.368077754974365 0.999118983745575 1.443161725997925 0.6787638068199158 0.5000036954879761 L 66.16616821289062 0.5000036954879761 C 65.87823486328125 1.194516897201538 65.29109191894531 2.431971788406372 64.20803833007812 4.090373516082764 C 62.61495971679688 6.529753684997559 59.59349060058594 10.4032735824585 54.24618148803711 15.00378322601318 C 51.72399139404297 17.1737232208252 48.6479606628418 18.83702278137207 45.10354232788086 19.9475040435791 C 41.78174209594727 20.98822402954102 38.15317153930664 21.51592445373535 34.31863021850586 21.51592445373535 Z" stroke="none"/><path d="M 1.39154052734375 1.000003814697266 C 1.786445617675781 2.030401229858398 2.489883422851562 3.616680145263672 3.633041381835938 5.449123382568359 C 4.807971954345703 7.332504272460938 6.211551666259766 9.104853630065918 7.804801940917969 10.71694374084473 C 9.794792175292969 12.73045349121094 12.08937072753906 14.49954414367676 14.62480163574219 15.97505378723145 C 20.12957000732422 19.17860412597656 27.30768966674805 21.01592445373535 34.31863021850586 21.01592445373535 C 38.10242080688477 21.01592445373535 41.68069076538086 20.49592399597168 44.95404815673828 19.47037315368652 C 48.43315887451172 18.38036346435547 51.44977188110352 16.75005340576172 53.92007064819336 14.62475395202637 C 59.19166946411133 10.08940410614014 62.17592239379883 6.275934219360352 63.75112152099609 3.875463485717773 C 64.53754425048828 2.677013397216797 65.06011199951172 1.702693939208984 65.39513397216797 1.000003814697266 L 1.39154052734375 1.000003814697266 M 0 3.814697265625e-06 L 66.884521484375 3.814697265625e-06 C 66.884521484375 3.814697265625e-06 65.0712890625 6.350093841552734 54.57226181030273 15.38281345367432 C 49.22470855712891 19.9835205078125 41.81971740722656 22.01591873168945 34.31863021850586 22.01591873168945 C 27.09260177612305 22.01591873168945 19.77749252319336 20.13071632385254 14.12182235717773 16.83935356140137 C 2.595207214355469 10.13134384155273 0 3.814697265625e-06 0 3.814697265625e-06 Z" stroke="none" fill="#707070"/></g><path d="M577.784,256.016h53.721" transform="translate(-575.784 -208.532)" fill="none" stroke="#707070" stroke-width="1" opacity="0.366"/><path d="M577.784,256.016h53.721" transform="translate(-561 -207.064)" fill="none" stroke="#707070" stroke-width="1" opacity="0.366"/></g></svg>