<svg xmlns="http://www.w3.org/2000/svg" xmlns:xlink="http://www.w3.org/1999/xlink" width="45.449" height="45.641" viewBox="0 0 45.449 45.641"><defs><style>.a{fill:none;}.b{clip-path:url(#a);}.c{fill:#16215e;}.d{fill:#d44a94;}.e{fill:#674f9c;}.f{fill:#484294;}.g{fill:#25aee7;}.h{fill:#5cbcad;}.i{fill:#ffdb2b;}</style><clipPath id="a"><rect class="a" width="45.449" height="45.64"/></clipPath></defs><g class="b" transform="translate(0)"><path class="c" d="M1046.061,285.812l-9-5.279-15-8.795-4.585-2.687,4.833-4.833a1.6,1.6,0,0,1,2.257,0l21.224,21.224A1.585,1.585,0,0,1,1046.061,285.812Z" transform="translate(-1000.611 -263.75)"/><path class="c" d="M918.958,337.59l-.052,7.885-.08,12.181-.017,2.643-10.151-10.151a1.6,1.6,0,0,1,0-2.257Z" transform="translate(-908.19 -326.199)"/><path class="c" d="M1044.883,420.67l-20.965,20.965a1.6,1.6,0,0,1-2.257,0l-4.951-4.951,4.506-2.561,10.577-6.012Z" transform="translate(-999.969 -396.462)"/><g transform="translate(15.706 9.599)"><path class="d" d="M1016.745,411.65v9.431L1010,424.976v-6.581Z" transform="translate(-1010 -398.433)"/><path class="e" d="M1016.745,411.65,1010,418.395V411.65Z" transform="translate(-1010 -398.433)"/><path class="f" d="M1016.745,329.866v9.323L1010,332.444v-6.473Z" transform="translate(-1010 -325.972)"/><path class="g" d="M1059.631,354.63l-5.911,5.911v-9.323Z" transform="translate(-1046.976 -347.323)"/><path class="h" d="M1069.868,379.247h-16.147l5.911-5.911Z" transform="translate(-1046.976 -366.03)"/><path class="h" d="M1069.962,411.65v.054L1059.7,417.63l-5.98-5.98Z" transform="translate(-1046.976 -398.433)"/><path class="i" d="M1059.7,417.63l-5.98,3.451V411.65Z" transform="translate(-1046.976 -398.433)"/><path class="e" d="M1016.745,374.674H1010V367.93Z" transform="translate(-1010 -361.457)"/></g></g></svg>